<svg width="50" height="45" viewBox="0 0 50 45" fill="none" xmlns="http://www.w3.org/2000/svg">
<path d="M25.617 9.12084L23.525 7.0289C24.0914 6.53907 24.821 6.22273 25.617 6.17681V9.12084ZM22.3158 9.9168C22.3668 10.7179 22.6832 11.4475 23.1832 12.0189L25.2853 9.9168H22.3158ZM25.617 13.2129V10.228L23.5046 12.3404C24.0761 12.8455 24.8057 13.1619 25.617 13.2129ZM23.2036 7.34524C22.6934 7.9167 22.3668 8.65143 22.3158 9.46269H25.3262L23.2036 7.34524ZM29.357 9.4678C29.3059 8.66163 28.9845 7.9269 28.4845 7.36055L26.3721 9.4678H29.357ZM26.066 10.2076V13.2129C26.8773 13.1619 27.6171 12.8353 28.1885 12.3251L26.066 10.2076ZM26.066 6.17171V9.14125L28.163 7.0442C27.5967 6.54418 26.867 6.22273 26.066 6.17171ZM28.4998 12.0087C28.9947 11.4373 29.3059 10.7128 29.357 9.9168H26.4129L28.4998 12.0087ZM40.6229 26.4687C40.6841 27.0503 40.7147 27.6371 40.7147 28.2341C40.7147 37.1121 33.8419 44.3369 25.3976 44.3369C16.9533 44.3369 10.0805 37.1172 10.0805 28.2392C10.0805 27.5402 10.1264 26.8513 10.2131 26.1829C5.65167 23.6726 -0.955809 19.5959 0.115675 17.5447C0.115675 17.5447 10.8458 9.53923 17.836 2.57969C17.836 2.57969 21.4433 0.0285357 24.8823 0.00302419C24.8823 0.00302419 29.2243 -0.20617 32.5051 2.85521C32.5051 2.85521 49.1437 16.5039 49.9039 16.8049C50.5723 17.06 47.7814 22.4174 40.6229 26.4687ZM19.6014 9.6974C19.6014 9.90149 19.7697 10.0648 19.9738 10.0648H20.8718C20.9943 10.0648 21.0963 10.0086 21.1678 9.9168H21.7239C21.7749 10.8862 22.1627 11.7587 22.7648 12.4373L22.3719 12.8302C22.2648 12.8149 22.1474 12.8506 22.0607 12.9323L21.428 13.57C21.28 13.718 21.28 13.9527 21.428 14.0956C21.5709 14.2436 21.8107 14.2436 21.9535 14.0956L22.5913 13.4578C22.6781 13.3762 22.7087 13.2537 22.6934 13.1466L23.0862 12.7537C23.7648 13.366 24.6475 13.7537 25.6119 13.8048V14.3762C25.52 14.4425 25.4639 14.5497 25.4639 14.6721V15.5753C25.4639 15.7793 25.6323 15.9477 25.8364 15.9477C26.0405 15.9477 26.2089 15.7793 26.2089 15.5753V14.6721C26.2089 14.5497 26.1476 14.4425 26.0609 14.3762V13.7997C27.0354 13.7486 27.9232 13.3609 28.6018 12.7384L29.0202 13.1568C29.0049 13.269 29.0355 13.3813 29.1223 13.468L29.7601 14.1058C29.9029 14.2487 30.1376 14.2487 30.2856 14.1058C30.4285 13.9629 30.4285 13.7282 30.2856 13.5803L29.6478 12.9425C29.5662 12.8557 29.4437 12.82 29.3366 12.8404L28.9182 12.422C29.5202 11.7434 29.8978 10.876 29.9488 9.9117H30.5458C30.6121 9.99844 30.7193 10.0546 30.8366 10.0546H31.7346C31.9438 10.0546 32.1071 9.88619 32.1071 9.68209C32.1071 9.478 31.9387 9.30963 31.7346 9.30963H30.8366C30.7142 9.30963 30.607 9.37085 30.5356 9.45759H29.9488C29.8927 8.48815 29.51 7.60546 28.9029 6.93195L29.3315 6.50846C29.4386 6.52377 29.5509 6.48805 29.6376 6.40131L30.2754 5.76863C30.4234 5.62576 30.4234 5.39106 30.2754 5.24309C30.1325 5.10023 29.8978 5.10023 29.7498 5.24309L29.1121 5.87578C29.0253 5.96251 28.9896 6.07987 29.0049 6.19212L28.5814 6.61561C27.9028 6.00844 27.0303 5.62576 26.066 5.56964V4.99308C26.1527 4.92164 26.2089 4.8145 26.2089 4.69714V3.79914C26.2089 3.59505 26.0405 3.42667 25.8364 3.42667C25.6323 3.42667 25.4639 3.59505 25.4639 3.79914V4.69714C25.4639 4.8196 25.5251 4.92675 25.6119 4.99308V5.56964C24.6475 5.62576 23.7802 5.99823 23.1015 6.6003L22.7036 6.20232C22.7189 6.09517 22.6883 5.97782 22.6015 5.89108L21.9637 5.25329C21.8209 5.11043 21.5862 5.11043 21.4382 5.25329C21.2902 5.40126 21.2902 5.63597 21.4382 5.78393L22.076 6.42172C22.1627 6.50846 22.275 6.53907 22.3872 6.52377L22.7852 6.92175C22.1678 7.60546 21.7801 8.48815 21.729 9.46269H21.1729C21.1014 9.37085 20.9994 9.31473 20.8769 9.31473H19.9789C19.7646 9.31983 19.6014 9.48821 19.6014 9.6974ZM37.2757 34.0915L34.1684 31.6985C33.4949 32.122 32.7041 32.372 31.8469 32.372C29.4386 32.372 27.4793 30.4179 27.4793 28.0045C27.4793 27.5504 27.5457 27.1218 27.6732 26.7085L17.9584 19.2438C15.3154 21.1674 13.3715 24.0757 12.6112 27.4636C12.5194 27.4177 12.4224 27.3667 12.3306 27.3157C12.3102 27.6218 12.2949 27.9279 12.2949 28.2392C12.2949 35.8977 18.1727 42.1225 25.3925 42.1225C30.6479 42.1225 35.1889 38.8265 37.2757 34.0915ZM38.4952 28.2392C38.4952 28.0147 38.4901 27.7902 38.4799 27.5708C38.4136 27.6014 38.3574 27.632 38.2962 27.6575C36.9951 21.448 31.7244 16.7845 25.4333 16.7845C23.5659 16.7845 21.7903 17.2029 20.1779 17.9478L28.9794 24.7084C29.7498 24.04 30.7499 23.6267 31.8469 23.6267C34.2603 23.6267 36.2196 25.5809 36.2196 27.9943C36.2196 28.6882 36.0563 29.3362 35.7655 29.9229L38.087 31.7036C38.3523 30.5964 38.4952 29.4331 38.4952 28.2392ZM20.2238 30.5658C18.9738 30.5658 17.9635 29.5505 17.9635 28.3004C17.9635 27.4891 18.3972 26.7799 19.0452 26.3819L22.2137 27.2391C22.3821 27.5606 22.4893 27.9177 22.4893 28.3004C22.4842 29.5505 21.4739 30.5658 20.2238 30.5658ZM21.8515 28.5861C21.8515 27.9432 21.331 27.4228 20.6882 27.4228C20.0504 27.4228 19.5299 27.9432 19.5299 28.5861C19.5299 29.2239 20.0555 29.7444 20.6882 29.7444C21.3259 29.7444 21.8464 29.2239 21.8515 28.5861ZM17.2645 24.1216L16.3002 24.1318V25.637L19.0401 26.3819C19.3871 26.1676 19.785 26.035 20.2187 26.035C21.0861 26.035 21.826 26.5299 22.2086 27.2391L23.8057 27.6728L17.2645 24.1216ZM21.4484 36.3314H29.3417V35.561H21.4484V36.3314Z" fill="#FF8A00"/>
</svg>
